<mxfile host="app.diagrams.net" agent="Mozilla/5.0 (Macintosh; Intel Mac OS X 10_15_7) AppleWebKit/537.36 (KHTML, like Gecko) Chrome/130.0.0.0 Safari/537.36" version="26.0.3">
  <diagram name="PaginÄƒ-1" id="B0nTlvXFXIQh6yyFnokd">
    <mxGraphModel dx="954" dy="615" grid="1" gridSize="10" guides="1" tooltips="1" connect="1" arrows="1" fold="1" page="1" pageScale="1" pageWidth="827" pageHeight="1169" math="0" shadow="0">
      <root>
        <mxCell id="0" />
        <mxCell id="1" parent="0" />
        <mxCell id="3IjrI92zLYc23TLEdCCV-9" style="edgeStyle=orthogonalEdgeStyle;rounded=0;orthogonalLoop=1;jettySize=auto;html=1;entryX=0.5;entryY=0;entryDx=0;entryDy=0;" edge="1" parent="1" source="3IjrI92zLYc23TLEdCCV-1" target="3IjrI92zLYc23TLEdCCV-5">
          <mxGeometry relative="1" as="geometry" />
        </mxCell>
        <mxCell id="3IjrI92zLYc23TLEdCCV-1" value="" style="rounded=1;whiteSpace=wrap;html=1;" vertex="1" parent="1">
          <mxGeometry x="80" y="120" width="230" height="100" as="geometry" />
        </mxCell>
        <mxCell id="3IjrI92zLYc23TLEdCCV-2" value="&lt;font style=&quot;font-size: 19px;&quot;&gt;User Interation&amp;nbsp;&lt;/font&gt;&lt;div&gt;&lt;font style=&quot;font-size: 19px;&quot;&gt;(Click on Map)&lt;/font&gt;&lt;/div&gt;" style="text;html=1;align=center;verticalAlign=middle;whiteSpace=wrap;rounded=0;" vertex="1" parent="1">
          <mxGeometry x="120" y="140" width="150" height="60" as="geometry" />
        </mxCell>
        <mxCell id="3IjrI92zLYc23TLEdCCV-3" value="" style="rounded=1;whiteSpace=wrap;html=1;" vertex="1" parent="1">
          <mxGeometry x="350" y="120" width="230" height="100" as="geometry" />
        </mxCell>
        <mxCell id="3IjrI92zLYc23TLEdCCV-4" value="&lt;font style=&quot;font-size: 19px;&quot;&gt;Data Sources (OpenWeatherMap Api)&lt;/font&gt;" style="text;html=1;align=center;verticalAlign=middle;whiteSpace=wrap;rounded=0;" vertex="1" parent="1">
          <mxGeometry x="360" y="130" width="210" height="80" as="geometry" />
        </mxCell>
        <mxCell id="3IjrI92zLYc23TLEdCCV-5" value="" style="rounded=1;whiteSpace=wrap;html=1;" vertex="1" parent="1">
          <mxGeometry x="80" y="310" width="230" height="100" as="geometry" />
        </mxCell>
        <mxCell id="3IjrI92zLYc23TLEdCCV-6" value="" style="rounded=1;whiteSpace=wrap;html=1;" vertex="1" parent="1">
          <mxGeometry x="460" y="310" width="230" height="100" as="geometry" />
        </mxCell>
        <mxCell id="3IjrI92zLYc23TLEdCCV-7" value="&lt;font style=&quot;font-size: 19px;&quot;&gt;Frontend &lt;br&gt;(Leaflet.js)&lt;/font&gt;" style="text;html=1;align=center;verticalAlign=middle;whiteSpace=wrap;rounded=0;" vertex="1" parent="1">
          <mxGeometry x="100" y="320" width="190" height="80" as="geometry" />
        </mxCell>
        <mxCell id="3IjrI92zLYc23TLEdCCV-8" value="&lt;font style=&quot;font-size: 19px;&quot;&gt;Backend&lt;/font&gt;&lt;div&gt;&lt;font style=&quot;font-size: 16px;&quot;&gt;(Python with Pandas/Numpy)&lt;/font&gt;&lt;/div&gt;" style="text;html=1;align=center;verticalAlign=middle;whiteSpace=wrap;rounded=0;" vertex="1" parent="1">
          <mxGeometry x="470" y="320" width="210" height="80" as="geometry" />
        </mxCell>
        <mxCell id="3IjrI92zLYc23TLEdCCV-12" value="" style="rounded=1;whiteSpace=wrap;html=1;" vertex="1" parent="1">
          <mxGeometry x="80" y="500" width="610" height="60" as="geometry" />
        </mxCell>
        <mxCell id="3IjrI92zLYc23TLEdCCV-13" value="&lt;font style=&quot;font-size: 19px;&quot;&gt;Interactive Map with Weather Details&lt;/font&gt;" style="text;html=1;align=center;verticalAlign=middle;whiteSpace=wrap;rounded=0;" vertex="1" parent="1">
          <mxGeometry x="110" y="515" width="550" height="30" as="geometry" />
        </mxCell>
        <mxCell id="3IjrI92zLYc23TLEdCCV-15" style="edgeStyle=orthogonalEdgeStyle;rounded=0;orthogonalLoop=1;jettySize=auto;html=1;entryX=0.189;entryY=-0.008;entryDx=0;entryDy=0;entryPerimeter=0;" edge="1" parent="1" source="3IjrI92zLYc23TLEdCCV-5" target="3IjrI92zLYc23TLEdCCV-12">
          <mxGeometry relative="1" as="geometry" />
        </mxCell>
        <mxCell id="3IjrI92zLYc23TLEdCCV-18" style="edgeStyle=orthogonalEdgeStyle;rounded=0;orthogonalLoop=1;jettySize=auto;html=1;entryX=0.813;entryY=-0.025;entryDx=0;entryDy=0;entryPerimeter=0;" edge="1" parent="1" source="3IjrI92zLYc23TLEdCCV-6" target="3IjrI92zLYc23TLEdCCV-12">
          <mxGeometry relative="1" as="geometry" />
        </mxCell>
        <mxCell id="3IjrI92zLYc23TLEdCCV-19" value="" style="rounded=1;whiteSpace=wrap;html=1;" vertex="1" parent="1">
          <mxGeometry x="600" y="120" width="230" height="100" as="geometry" />
        </mxCell>
        <mxCell id="3IjrI92zLYc23TLEdCCV-20" value="&lt;font style=&quot;font-size: 20px;&quot;&gt;Datasets &lt;br&gt;&lt;/font&gt;&lt;font style=&quot;font-size: 16px;&quot;&gt;(countries.csv, population.csv, cities.csv)&lt;/font&gt;" style="text;html=1;align=center;verticalAlign=middle;whiteSpace=wrap;rounded=0;" vertex="1" parent="1">
          <mxGeometry x="610" y="130" width="210" height="80" as="geometry" />
        </mxCell>
        <mxCell id="3IjrI92zLYc23TLEdCCV-22" style="edgeStyle=orthogonalEdgeStyle;rounded=0;orthogonalLoop=1;jettySize=auto;html=1;entryX=0.613;entryY=-0.03;entryDx=0;entryDy=0;entryPerimeter=0;" edge="1" parent="1" source="3IjrI92zLYc23TLEdCCV-19" target="3IjrI92zLYc23TLEdCCV-6">
          <mxGeometry relative="1" as="geometry" />
        </mxCell>
        <mxCell id="3IjrI92zLYc23TLEdCCV-23" style="edgeStyle=orthogonalEdgeStyle;rounded=0;orthogonalLoop=1;jettySize=auto;html=1;entryX=0.439;entryY=-0.03;entryDx=0;entryDy=0;entryPerimeter=0;" edge="1" parent="1" source="3IjrI92zLYc23TLEdCCV-3" target="3IjrI92zLYc23TLEdCCV-6">
          <mxGeometry relative="1" as="geometry" />
        </mxCell>
      </root>
    </mxGraphModel>
  </diagram>
</mxfile>
